<?xml version="1.0" standalone="no"?>
<svg xmlns:xlink="http://www.w3.org/1999/xlink" xmlns="http://www.w3.org/2000/svg" width="600" height="400" id="diagram"><defs><marker id="filledTraiangle" viewBox="0 0 10 10" refX="10" refY="5" markerWidth="10" markerHeight="10" orient="auto"><path d="M10 5 0 0 0 10Z" fill-rule="evenodd" stroke="none" fill="black"/></marker><marker id="triangle" viewBox="0 0 10 10" refX="10" refY="5" markerWidth="10" markerHeight="10" orient="auto"><path d="M10 5 0 0 0 10 Z M8 5 1 8.4 1 1.6Z" fill-rule="evenodd" stroke="none" fill="black"/></marker><marker id="arrowhead" viewBox="0 0 10 10" refX="10" refY="5" markerWidth="10" markerHeight="10" orient="auto"><path d="M10 5 0 10 0 8.7 6.8 5.5 0 5.5 0 4.5 6.8 4.5 0 1.3 0 0Z" stroke="none" fill="black"/></marker><marker id="diamond" viewBox="0 0 16 10" refX="16" refY="5" markerWidth="16" markerHeight="10" orient="auto"><path d="M-1 5 7.5 0 16 5 7.5 10Z M1.3 5 7.5 8.7 14 5 7.5 1.3Z" fill-rule="evenodd" stroke="none" fill="black"/></marker><marker id="filledDiamond" viewBox="0 0 16 10" refX="16" refY="5" markerWidth="16" markerHeight="10" orient="auto"><path d="M-1 5 7.5 0 16 5 7.5 10Z" stroke="none" fill="black"/></marker></defs><g id="AggregateClass" class="class" transform="translate(40,20)"><rect width="190" fill="none" stroke="black" stroke-width="1" height="72.796875"/><g class="classname"><rect width="190" fill="none" stroke="black" stroke-width="1" height="40.796875"/><text font-size="12" text-anchor="middle" fill="black" transform="translate(95,4)" font-family="Noto Sans Japanese"><tspan x="0" y="0" dy="1em">&lt;&lt;interface&gt;&gt;</tspan><tspan x="0" y="1.4em" dy="1em">Aggregate</tspan></text></g><g class="attributes" transform="translate(0,40.796875)"><rect width="190" fill="none" stroke="black" stroke-width="1" height="8"/><text font-size="12" font-family="Noto Sans Japanese"/></g><g class="methods" transform="translate(0,48.796875)"><rect width="190" fill="none" stroke="black" stroke-width="1" height="24"/><text font-size="12" font-style="italic" text-anchor="start" fill="black" transform="translate(4,4)" font-family="Noto Sans Japanese"><tspan x="0" y="0" dy="1em">iterator()</tspan></text></g></g><g id="IteratorClass" class="class" transform="translate(340,20)"><rect width="190" fill="none" stroke="black" stroke-width="1" height="89.59375"/><g class="classname"><rect width="190" fill="none" stroke="black" stroke-width="1" height="40.796875"/><text font-size="12" text-anchor="middle" fill="black" transform="translate(95,4)" font-family="Noto Sans Japanese"><tspan x="0" y="0" dy="1em">&lt;&lt;interface&gt;&gt;</tspan><tspan x="0" y="1.4em" dy="1em">Iterator</tspan></text></g><g class="attributes" transform="translate(0,40.796875)"><rect width="190" fill="none" stroke="black" stroke-width="1" height="8"/><text font-size="12" font-family="Noto Sans Japanese"/></g><g class="methods" transform="translate(0,48.796875)"><rect width="190" fill="none" stroke="black" stroke-width="1" height="40.796875"/><text font-size="12" font-style="italic" text-anchor="start" fill="black" transform="translate(4,4)" font-family="Noto Sans Japanese"><tspan x="0" y="0" dy="1em">hasNext()</tspan><tspan x="0" y="1.4em" dy="1em">next()</tspan></text></g></g><g id="ConcreteAggregateClass" class="class" transform="translate(40,220)"><rect width="190" fill="none" stroke="black" stroke-width="1" height="56"/><g class="classname"><rect width="190" fill="none" stroke="black" stroke-width="1" height="24"/><text font-size="12" text-anchor="middle" fill="black" transform="translate(95,4)" font-family="Noto Sans Japanese"><tspan x="0" y="0" dy="1em">ConcreteAggregate</tspan></text></g><g class="attributes" transform="translate(0,24)"><rect width="190" fill="none" stroke="black" stroke-width="1" height="8"/><text font-size="12" font-family="Noto Sans Japanese"/></g><g class="methods" transform="translate(0,32)"><rect width="190" fill="none" stroke="black" stroke-width="1" height="24"/><text font-size="12" font-style="normal" text-anchor="start" fill="black" transform="translate(4,4)" font-family="Noto Sans Japanese"><tspan x="0" y="0" dy="1em">iterator()</tspan></text></g></g><g id="ConcreteIteratorClass" class="class" transform="translate(340,220)"><rect width="190" fill="none" stroke="black" stroke-width="1" height="88.796875"/><g class="classname"><rect width="190" fill="none" stroke="black" stroke-width="1" height="24"/><text font-size="12" text-anchor="middle" fill="black" transform="translate(95,4)" font-family="Noto Sans Japanese"><tspan x="0" y="0" dy="1em">ConcreteIterator</tspan></text></g><g class="attributes" transform="translate(0,24)"><rect width="190" fill="none" stroke="black" stroke-width="1" height="24"/><text font-size="12" text-anchor="start" fill="black" transform="translate(4,4)" font-family="Noto Sans Japanese"><tspan x="0" y="0" dy="1em">aggregate</tspan></text></g><g class="methods" transform="translate(0,48)"><rect width="190" fill="none" stroke="black" stroke-width="1" height="40.796875"/><text font-size="12" font-style="normal" text-anchor="start" fill="black" transform="translate(4,4)" font-family="Noto Sans Japanese"><tspan x="0" y="0" dy="1em">hasNext()</tspan><tspan x="0" y="1.4em" dy="1em">next()</tspan></text></g></g><text><textPath xmlns:xlink="http://www.w3.org/1999/xlink" xlink:href="#100" startOffset="30%" font-size="12">creates</textPath></text><path id="100" class="connector" d="M230,64.796875L340,64.796875" stroke="black" stroke-width="1" fill="none" marker-end="url(#arrowhead)" stroke-dasharray="100 10" stroke-dashoffset="0"/><path id="101" class="connector" d="M230,264.3984375L340,264.3984375" stroke="black" stroke-width="1" fill="none" marker-end="url(#diamond)" stroke-dasharray="94 16" stroke-dashoffset="0"/><path id="102" class="connector" d="M135,220L135,92.796875" stroke="black" stroke-width="1" fill="none" marker-end="url(#triangle)" style="stroke-dasharray: 3, 3;" stroke-dasharray="117.203125 10" stroke-dashoffset="0"/><path id="103" class="connector" d="M435,220L435,109.59375" stroke="black" stroke-width="1" fill="none" marker-end="url(#triangle)" style="stroke-dasharray: 3, 3;" stroke-dasharray="100.40625 10" stroke-dashoffset="0"/></svg>